<mxfile host="app.diagrams.net" modified="2024-02-08T10:07:19.989Z" agent="Mozilla/5.0 (Windows NT 10.0; Win64; x64) AppleWebKit/537.36 (KHTML, like Gecko) Chrome/121.0.0.0 Safari/537.36" etag="b9p1ZK6SYeeUzc1djOqB" version="23.1.1" type="device">
  <diagram name="Page-1" id="omrCjFsz9Rno5y2q_Hbb">
    <mxGraphModel dx="2284" dy="738" grid="1" gridSize="10" guides="1" tooltips="1" connect="1" arrows="1" fold="1" page="1" pageScale="1" pageWidth="850" pageHeight="1100" math="0" shadow="0">
      <root>
        <mxCell id="0" />
        <mxCell id="1" parent="0" />
        <mxCell id="5tv3QEgn05VSVdU80hes-9" style="edgeStyle=orthogonalEdgeStyle;rounded=0;orthogonalLoop=1;jettySize=auto;html=1;exitX=0.5;exitY=1;exitDx=0;exitDy=0;entryX=0.5;entryY=0;entryDx=0;entryDy=0;" edge="1" parent="1" source="5tv3QEgn05VSVdU80hes-1" target="5tv3QEgn05VSVdU80hes-8">
          <mxGeometry relative="1" as="geometry" />
        </mxCell>
        <mxCell id="5tv3QEgn05VSVdU80hes-10" style="edgeStyle=orthogonalEdgeStyle;rounded=0;orthogonalLoop=1;jettySize=auto;html=1;exitX=0;exitY=0.75;exitDx=0;exitDy=0;entryX=1;entryY=0.75;entryDx=0;entryDy=0;" edge="1" parent="1" source="5tv3QEgn05VSVdU80hes-1" target="5tv3QEgn05VSVdU80hes-5">
          <mxGeometry relative="1" as="geometry" />
        </mxCell>
        <mxCell id="5tv3QEgn05VSVdU80hes-11" value="id_token&lt;br&gt;acces_token" style="edgeLabel;html=1;align=center;verticalAlign=middle;resizable=0;points=[];" vertex="1" connectable="0" parent="5tv3QEgn05VSVdU80hes-10">
          <mxGeometry x="0.2696" y="1" relative="1" as="geometry">
            <mxPoint x="-54" y="7" as="offset" />
          </mxGeometry>
        </mxCell>
        <mxCell id="5tv3QEgn05VSVdU80hes-18" style="edgeStyle=orthogonalEdgeStyle;rounded=0;orthogonalLoop=1;jettySize=auto;html=1;exitX=0.75;exitY=1;exitDx=0;exitDy=0;entryX=0.75;entryY=0;entryDx=0;entryDy=0;" edge="1" parent="1" source="5tv3QEgn05VSVdU80hes-1" target="5tv3QEgn05VSVdU80hes-8">
          <mxGeometry relative="1" as="geometry" />
        </mxCell>
        <mxCell id="5tv3QEgn05VSVdU80hes-1" value="API PayPal" style="whiteSpace=wrap;html=1;aspect=fixed;" vertex="1" parent="1">
          <mxGeometry x="682.5" y="220" width="115" height="115" as="geometry" />
        </mxCell>
        <mxCell id="5tv3QEgn05VSVdU80hes-19" style="edgeStyle=orthogonalEdgeStyle;rounded=0;orthogonalLoop=1;jettySize=auto;html=1;exitX=0.5;exitY=1;exitDx=0;exitDy=0;entryX=0;entryY=0.5;entryDx=0;entryDy=0;" edge="1" parent="1" source="5tv3QEgn05VSVdU80hes-2" target="5tv3QEgn05VSVdU80hes-8">
          <mxGeometry relative="1" as="geometry" />
        </mxCell>
        <mxCell id="5tv3QEgn05VSVdU80hes-2" value="" style="shape=process;whiteSpace=wrap;html=1;backgroundOutline=1;" vertex="1" parent="1">
          <mxGeometry x="440" y="162.5" width="120" height="230" as="geometry" />
        </mxCell>
        <mxCell id="5tv3QEgn05VSVdU80hes-7" style="edgeStyle=orthogonalEdgeStyle;rounded=0;orthogonalLoop=1;jettySize=auto;html=1;exitX=0.5;exitY=0.5;exitDx=0;exitDy=0;exitPerimeter=0;" edge="1" parent="1" source="5tv3QEgn05VSVdU80hes-3" target="5tv3QEgn05VSVdU80hes-5">
          <mxGeometry relative="1" as="geometry" />
        </mxCell>
        <mxCell id="5tv3QEgn05VSVdU80hes-3" value="Actor" style="shape=umlActor;verticalLabelPosition=bottom;verticalAlign=top;html=1;outlineConnect=0;" vertex="1" parent="1">
          <mxGeometry x="-230" y="255" width="30" height="60" as="geometry" />
        </mxCell>
        <mxCell id="5tv3QEgn05VSVdU80hes-4" value="IdP / IAM" style="shape=process;whiteSpace=wrap;html=1;backgroundOutline=1;fillColor=#d5e8d4;strokeColor=#82b366;" vertex="1" parent="1">
          <mxGeometry x="130" y="20" width="120" height="60" as="geometry" />
        </mxCell>
        <mxCell id="5tv3QEgn05VSVdU80hes-6" style="edgeStyle=orthogonalEdgeStyle;rounded=0;orthogonalLoop=1;jettySize=auto;html=1;exitX=0.5;exitY=0;exitDx=0;exitDy=0;entryX=0;entryY=0.5;entryDx=0;entryDy=0;" edge="1" parent="1" source="5tv3QEgn05VSVdU80hes-5" target="5tv3QEgn05VSVdU80hes-4">
          <mxGeometry relative="1" as="geometry" />
        </mxCell>
        <mxCell id="5tv3QEgn05VSVdU80hes-15" style="edgeStyle=orthogonalEdgeStyle;rounded=0;orthogonalLoop=1;jettySize=auto;html=1;exitX=1;exitY=0.25;exitDx=0;exitDy=0;entryX=0;entryY=0.25;entryDx=0;entryDy=0;" edge="1" parent="1" source="5tv3QEgn05VSVdU80hes-5" target="5tv3QEgn05VSVdU80hes-1">
          <mxGeometry relative="1" as="geometry" />
        </mxCell>
        <mxCell id="5tv3QEgn05VSVdU80hes-16" value="Account Status: access_token" style="edgeLabel;html=1;align=center;verticalAlign=middle;resizable=0;points=[];" vertex="1" connectable="0" parent="5tv3QEgn05VSVdU80hes-15">
          <mxGeometry x="-0.3736" y="-1" relative="1" as="geometry">
            <mxPoint x="-18" y="-3" as="offset" />
          </mxGeometry>
        </mxCell>
        <mxCell id="5tv3QEgn05VSVdU80hes-5" value="App" style="whiteSpace=wrap;html=1;aspect=fixed;" vertex="1" parent="1">
          <mxGeometry x="-80" y="200" width="170" height="170" as="geometry" />
        </mxCell>
        <mxCell id="5tv3QEgn05VSVdU80hes-8" value="IdP / IAM" style="shape=process;whiteSpace=wrap;html=1;backgroundOutline=1;fillColor=#e1d5e7;strokeColor=#9673a6;" vertex="1" parent="1">
          <mxGeometry x="530" y="460" width="120" height="60" as="geometry" />
        </mxCell>
        <mxCell id="5tv3QEgn05VSVdU80hes-14" style="edgeStyle=orthogonalEdgeStyle;rounded=0;orthogonalLoop=1;jettySize=auto;html=1;exitX=1;exitY=0.5;exitDx=0;exitDy=0;entryX=0;entryY=0.5;entryDx=0;entryDy=0;" edge="1" parent="1" source="5tv3QEgn05VSVdU80hes-12" target="5tv3QEgn05VSVdU80hes-13">
          <mxGeometry relative="1" as="geometry" />
        </mxCell>
        <mxCell id="5tv3QEgn05VSVdU80hes-12" value="" style="rounded=0;whiteSpace=wrap;html=1;fillColor=#d5e8d4;strokeColor=#82b366;" vertex="1" parent="1">
          <mxGeometry x="-60" y="320" width="50" height="40" as="geometry" />
        </mxCell>
        <mxCell id="5tv3QEgn05VSVdU80hes-13" value="" style="rounded=0;whiteSpace=wrap;html=1;fillColor=#e1d5e7;strokeColor=#9673a6;" vertex="1" parent="1">
          <mxGeometry x="10" y="320" width="50" height="40" as="geometry" />
        </mxCell>
        <mxCell id="5tv3QEgn05VSVdU80hes-17" value="access_token: JWT" style="text;html=1;strokeColor=none;fillColor=none;align=center;verticalAlign=middle;whiteSpace=wrap;rounded=0;" vertex="1" parent="1">
          <mxGeometry x="580" y="325" width="60" height="30" as="geometry" />
        </mxCell>
      </root>
    </mxGraphModel>
  </diagram>
</mxfile>
